HIERARCHY
ROOT Hips
{
 OFFSET 0.000000 0.000000 0.000000
 CHANNELS 6 Xposition Yposition Zposition Yrotation Xrotation Zrotation
 JOINT Chest
 {
  OFFSET 0.000000 9.588913 -0.003946
  CHANNELS 3 Yrotation Xrotation Zrotation
  JOINT Chest2
  {
   OFFSET 0.000000 9.541882 0.008053
   CHANNELS 3 Yrotation Xrotation Zrotation
   JOINT Chest3
   {
    OFFSET 0.000000 9.501360 0.000000
    CHANNELS 3 Yrotation Xrotation Zrotation
    JOINT Chest4
    {
     OFFSET 0.000000 9.491660 0.000000
     CHANNELS 3 Yrotation Xrotation Zrotation
     JOINT Neck
     {
      OFFSET 0.000000 14.331917 0.000000
      CHANNELS 3 Yrotation Xrotation Zrotation
      JOINT Head
      {
       OFFSET 0.000000 8.884799 0.017034
       CHANNELS 3 Yrotation Xrotation Zrotation
       End Site
       {
        OFFSET 0.000000 16.896195 0.008993
       }
      }
     }
     JOINT RightCollar
     {
      OFFSET -2.923010 9.499495 0.000000
      CHANNELS 3 Yrotation Xrotation Zrotation
      JOINT RightShoulder
      {
       OFFSET -13.795216 0.000000 0.000000
       CHANNELS 3 Yrotation Xrotation Zrotation
       JOINT RightElbow
       {
        OFFSET -30.272209 0.000000 0.000000
        CHANNELS 3 Yrotation Xrotation Zrotation
        JOINT RightWrist
        {
         OFFSET -24.478199 0.000000 0.000000
         CHANNELS 3 Yrotation Xrotation Zrotation
         End Site
         {
          OFFSET -18.090752 0.000000 0.000000
         }
        }
       }
      }
     }
     JOINT LeftCollar
     {
      OFFSET 2.923010 9.499495 0.000000
      CHANNELS 3 Yrotation Xrotation Zrotation
      JOINT LeftShoulder
      {
       OFFSET 13.795216 0.000000 0.000000
       CHANNELS 3 Yrotation Xrotation Zrotation
       JOINT LeftElbow
       {
        OFFSET 30.272209 0.000000 0.000000
        CHANNELS 3 Yrotation Xrotation Zrotation
        JOINT LeftWrist
        {
         OFFSET 24.478199 0.000000 0.000000
         CHANNELS 3 Yrotation Xrotation Zrotation
         End Site
         {
          OFFSET 18.090752 0.000000 0.000000
         }
        }
       }
      }
     }
    }
   }
  }
 }
 JOINT RightHip
 {
  OFFSET -7.826875 0.019532 0.001973
  CHANNELS 3 Yrotation Xrotation Zrotation
  JOINT RightKnee
  {
   OFFSET 0.000000 -40.546152 -0.001885
   CHANNELS 3 Yrotation Xrotation Zrotation
   JOINT RightAnkle
   {
    OFFSET 0.000000 -39.417092 -0.003189
    CHANNELS 3 Yrotation Xrotation Zrotation
    JOINT RightToe
    {
     OFFSET 0.000000 -7.579396 17.243563
     CHANNELS 3 Yrotation Xrotation Zrotation
     End Site
     {
      OFFSET 0.000000 -1.500329 6.694466
     }
    }
   }
  }
 }
 JOINT LeftHip
 {
  OFFSET 7.826875 0.019532 0.001973
  CHANNELS 3 Yrotation Xrotation Zrotation
  JOINT LeftKnee
  {
   OFFSET 0.000000 -40.546152 -0.001885
   CHANNELS 3 Yrotation Xrotation Zrotation
   JOINT LeftAnkle
   {
    OFFSET 0.000000 -39.417092 -0.003189
    CHANNELS 3 Yrotation Xrotation Zrotation
    JOINT LeftToe
    {
     OFFSET 0.000000 -7.579396 17.243563
     CHANNELS 3 Yrotation Xrotation Zrotation
     End Site
     {
      OFFSET 0.000000 -1.500329 6.694466
     }
    }
   }
  }
 }
}
MOTION
Frames: 8
Frame Time: 0.008333
0.000000 87.345680 0.000000 0.000000 -5.767889 0.000000 0.000000 11.653876 0.000000 0.000000 -5.885988 0.000000 0.000000 -0.000000 0.000000 0.000000 -0.000000 0.000000 0.000000 12.528808 0.000000 0.000000 0.711711 0.000000 0.000000 -0.000000 0.000000 0.000000 -0.000000 0.000000 2.309063 -0.000000 0.000000 -2.309063 -0.000000 -0.000000 0.000000 -0.000000 0.000000 0.000000 0.000000 0.000000 -2.309063 0.000000 0.000000 2.309063 -0.000000 0.000000 0.000000 8.520374 0.000000 0.000000 1.905768 0.000000 -0.000000 -4.658254 0.000000 0.000000 -0.000000 0.000000 0.000000 8.520374 0.000000 0.000000 1.905768 0.000000 -0.000000 -4.658254 0.000000 0.000000 -0.000000 0.000000
-3.662442 89.089594 9.547770 -52.213728 -5.936690 0.132506 1.529789 1.680322 0.150486 0.880196 0.949950 0.063813 1.100448 1.187276 0.082050 0.880196 0.949950 0.063813 -5.958172 9.881901 -5.560228 -5.258551 -15.267061 -4.721358 -0.759934 0.228258 -0.958965 1.625969 -0.278807 89.938312 0.477021 -2.546043 1.054857 0.968356 -3.370174 0.583157 1.173759 1.032242 1.890876 5.155446 3.188682 -89.253375 -2.926377 6.068193 -1.299870 0.207324 -1.314333 0.456338 2.154537 8.802063 2.089762 0.584630 1.601715 0.177243 5.305260 -4.162367 -2.815186 -0.080513 0.215092 -0.060660 -6.435359 2.265540 1.608405 6.296058 8.997170 -0.454123 6.081771 -4.830145 -3.362187 0.037212 -0.062935 0.021020
-3.638173 89.084765 9.487578 -52.129942 -5.930956 0.143588 1.556356 1.685350 0.149167 0.895762 0.957902 0.059256 1.119896 1.197224 0.076412 0.895762 0.957902 0.059256 -5.959039 9.871338 -5.531637 -5.266091 -15.278490 -4.689157 -0.751782 0.212124 -0.956312 1.668803 -0.291416 89.918998 0.485597 -2.536771 1.062437 0.965867 -3.379554 0.587762 1.168302 1.037165 1.889559 5.200427 3.211784 -89.256263 -2.978757 6.039066 -1.333240 0.219011 -1.307699 0.446369 2.152020 8.778544 2.098329 0.585188 1.572716 0.184171 5.228578 -4.145014 -2.828654 -0.074568 0.210148 -0.057762 -6.493478 2.157120 1.631532 6.330200 9.108795 -0.449521 6.033149 -4.833818 -3.401629 0.039538 -0.063943 0.030730
-3.612730 89.079984 9.420146 -52.048140 -5.933011 0.160321 1.582811 1.695788 0.145657 0.911203 0.966085 0.053775 1.139185 1.207464 0.069622 0.911203 0.966086 0.053775 -5.965254 9.858515 -5.503610 -5.279668 -15.292344 -4.656508 -0.746835 0.191740 -0.952123 1.703021 -0.298318 89.898464 0.496972 -2.531557 1.070023 0.966836 -3.381959 0.593984 1.158925 1.042009 1.887714 5.255058 3.236399 -89.263635 -3.021184 6.006391 -1.352949 0.235577 -1.298128 0.431674 2.145680 8.767238 2.106891 0.583778 1.527989 0.186018 5.156335 -4.117401 -2.842912 -0.070200 0.207312 -0.054435 -6.517284 2.071054 1.655934 6.336225 9.183081 -0.449515 5.973803 -4.820339 -3.441447 0.040549 -0.062115 0.038991
-3.587400 89.075702 9.348328 -51.969305 -5.940788 0.184068 1.608383 1.709118 0.139905 0.926228 0.973926 0.046444 1.157950 1.217280 0.060518 0.926228 0.973926 0.046444 -5.975805 9.844990 -5.476992 -5.297900 -15.306947 -4.624536 -0.744143 0.172013 -0.945202 1.729375 -0.303293 89.877772 0.509778 -2.529538 1.077287 0.969828 -3.376739 0.595790 1.146461 1.050703 1.887870 5.321114 3.260771 -89.277083 -3.054309 5.967516 -1.359166 0.258145 -1.289986 0.412567 2.131515 8.766435 2.109504 0.584464 1.470634 0.184358 5.100404 -4.082242 -2.858451 -0.065268 0.206617 -0.049387 -6.519884 2.003633 1.678078 6.324545 9.226854 -0.455479 5.912450 -4.792456 -3.479517 0.041358 -0.059900 0.045808
-3.562783 89.072240 9.274439 -51.885351 -5.949188 0.216135 1.629519 1.721607 0.130755 0.938567 0.980367 0.036124 1.173348 1.225356 0.047666 0.938567 0.980367 0.036124 -5.987719 9.832606 -5.451364 -5.317433 -15.320314 -4.593358 -0.740802 0.156402 -0.934091 1.751332 -0.308721 89.856185 0.522732 -2.523257 1.085770 0.973731 -3.373310 0.594005 1.134799 1.068113 1.892596 5.405010 3.283973 -89.296401 -3.080696 5.919997 -1.353674 0.283596 -1.276273 0.390271 2.099572 8.771830 2.102916 0.586336 1.403677 0.180854 5.058559 -4.042624 -2.876235 -0.058901 0.207173 -0.042905 -6.529309 1.945779 1.693486 6.311329 9.248861 -0.465914 5.854590 -4.752491 -3.515911 0.042155 -0.059567 0.051419
-3.539429 89.069760 9.199633 -51.796268 -5.953532 0.255640 1.645959 1.731678 0.118871 0.948061 0.985252 0.023383 1.185182 1.231494 0.031777 0.948060 0.985252 0.023383 -6.000500 9.820403 -5.427448 -5.337585 -15.333481 -4.563922 -0.738023 0.142137 -0.919108 1.772444 -0.315305 89.832372 0.533930 -2.513821 1.094239 0.978139 -3.374165 0.593233 1.122658 1.093264 1.900153 5.510639 3.308011 -89.322823 -3.104106 5.858475 -1.335141 0.314760 -1.256639 0.363930 2.050747 8.777816 2.088599 0.586001 1.330455 0.178018 5.023699 -3.999402 -2.899579 -0.051868 0.207353 -0.034732 -6.560081 1.891821 1.701012 6.305694 9.253313 -0.477038 5.803132 -4.702462 -3.553041 0.042610 -0.061802 0.055944
-3.517796 89.068257 9.124271 -51.710022 -5.950890 0.301549 1.660131 1.739020 0.105820 0.956275 0.988719 0.009564 1.195414 1.235863 0.014534 0.956275 0.988719 0.009564 -6.015621 9.806628 -5.407732 -5.359552 -15.348341 -4.538769 -0.739481 0.126872 -0.904950 1.795756 -0.324564 89.808921 0.541439 -2.508460 1.100103 0.984995 -3.376628 0.593810 1.110268 1.122960 1.904489 5.636736 3.334466 -89.356085 -3.128877 5.776760 -1.301847 0.357688 -1.236121 0.326798 1.993228 8.779336 2.067230 0.584527 1.254097 0.177944 4.995466 -3.952910 -2.929361 -0.044775 0.206857 -0.025348 -6.607784 1.837762 1.700432 6.308200 9.244848 -0.485041 5.763171 -4.645397 -3.593509 0.041988 -0.066634 0.059708
